<?xml version="1.0" encoding="UTF-8"?>
<svg width="60px" height="60px" viewBox="0 0 60 60" version="1.1" xmlns="http://www.w3.org/2000/svg" xmlns:xlink="http://www.w3.org/1999/xlink">
    <!-- Generator: Sketch 58 (84663) - https://sketch.com -->
    <title>dicord</title>
    <desc>Created with Sketch.</desc>
    <defs>
        <path d="M35.7777887,39.1144227 C37.7195168,38.5083341 39.3582007,37.5655297 40.6489448,35.915622 C33.5891356,39.9898839 26.6191172,39.8664214 19.6603228,35.994189 C19.8286807,36.4319196 20.614351,37.2400377 21.6469463,37.8573501 C22.4438405,38.3287523 23.3080779,38.7103636 24.1610914,39.1368704 C24.0825244,39.2378852 23.9702858,39.3950192 23.8468233,39.5521533 C23.5550029,39.9225407 23.218287,40.2592566 22.9713621,40.6520918 C22.6458701,41.1683894 22.241811,41.3142996 21.6244986,41.2469565 C19.0879058,40.9551361 16.8543572,40.0684509 15.0248677,38.2389614 C14.3626598,37.5879774 14.1718542,36.892098 14.2167496,35.9492936 C14.4412269,31.6393305 15.4625983,27.5201731 17.0900583,23.546926 C17.3145356,22.9969567 17.606356,22.4694352 17.8308332,21.919466 C17.9879673,21.5266308 18.25734,21.268482 18.6052797,21.0440047 C20.3113068,19.9103946 22.1407963,19.0910527 24.1723153,18.743113 C24.5875982,18.6757698 25.0028811,18.6196505 25.4293879,18.5972028 C25.5865219,18.5859789 25.7548799,18.7094414 25.9007901,18.8329039 C24.2172108,19.4053209 22.5897508,20.0114094 21.0745294,20.8980945 C20.4684408,21.2460342 19.8960239,21.6613171 19.312383,22.0429284 C19.1889205,22.1214955 19.0766819,22.2337341 18.9307717,22.3571966 C26.1252673,18.9226948 33.2860913,18.7543368 40.4581392,22.2674057 C38.5388588,20.7185127 36.3277579,19.7532606 34.0044185,19.0012618 C34.1727764,18.6533221 34.4084775,18.5747551 34.778865,18.6084266 C37.2930101,18.8441277 39.5377825,19.7644844 41.5805254,21.2011388 C41.7713311,21.3358251 41.9509129,21.5266308 42.0631515,21.7398842 C43.6569399,24.9611326 44.7232068,28.3395151 45.3292953,31.8750316 C45.6098919,33.5249394 45.7558021,35.1972948 45.7894737,36.8696503 C45.7894737,37.0829036 45.7109066,37.3410525 45.5762203,37.5094104 C44.2293569,39.2603329 42.4447628,40.3378236 40.3346767,40.8877929 C39.5265586,41.1010463 38.6735451,41.1683894 37.8429793,41.2806281 C37.708293,41.3030758 37.5174873,41.2581803 37.4389203,41.1683894 C36.8777272,40.4837338 36.3502057,39.821526 35.7777887,39.1144227 Z M24.9579857,34.6697733 C25.5640742,34.6697733 26.1028196,34.4789676 26.5742218,34.0973563 C27.3598921,33.4575962 27.618041,32.5933588 27.7415035,31.6056589 C27.9884284,29.5292445 25.6426412,28.0140231 23.8243756,28.8670366 C22.5448553,29.4731251 21.8714236,31.033242 22.2754826,32.492344 C22.6346462,33.8055359 23.7009131,34.6697733 24.9579857,34.6697733 Z M34.8237604,34.7146687 C35.1380286,34.6361017 35.4747444,34.6024301 35.7665648,34.4789676 C37.5960544,33.7494166 38.1796952,31.3026147 36.9226226,29.6639308 C35.9236989,28.3731867 34.0605378,28.2497242 32.9157039,29.4170058 C32.174929,30.1690046 31.9504517,31.0893613 32.0626904,32.1219566 C32.2422721,33.5361632 33.4544493,34.6697733 34.8237604,34.7146687 Z" id="path-1"></path>
    </defs>
    <g id="页面-1" stroke="none" stroke-width="1" fill="none" fill-rule="evenodd">
        <g id="画板备份-7" transform="translate(-1400.000000, -7850.000000)">
            <g id="Group-26" transform="translate(0.000000, 7818.000000)">
                <g id="facebook-copy" transform="translate(1400.000000, 32.000000)">
                    <g>
                        <mask id="mask-2" fill="white">
                            <use xlink:href="#path-1"></use>
                        </mask>
                        <use id="Shape" fill="#FFFFFF" fill-rule="nonzero" xlink:href="#path-1"></use>
                    </g>
                </g>
            </g>
        </g>
    </g>
</svg>