<?xml version="1.0" encoding="UTF-8"?>
<svg width="60px" height="60px" viewBox="0 0 60 60" version="1.1" xmlns="http://www.w3.org/2000/svg" xmlns:xlink="http://www.w3.org/1999/xlink">
    <!-- Generator: Sketch 58 (84663) - https://sketch.com -->
    <title>dicord</title>
    <desc>Created with Sketch.</desc>
    <g id="页面-1" stroke="none" stroke-width="1" fill="none" fill-rule="evenodd">
        <g id="画板备份-7" transform="translate(-678.000000, -8596.000000)" fill="#FFFFFF" fill-rule="nonzero">
            <g id="fotter" transform="translate(0.000000, 7817.000000)">
                <g id="facebook-copy备份" transform="translate(678.000000, 779.000000)">
                    <path d="M37,24.7288136 L32.2542373,24.7288136 L32.2542373,21.6440678 C32.2542373,20.4576271 33.0847458,20.220339 33.559322,20.220339 C34.1525424,20.220339 36.8813559,20.220339 36.8813559,20.220339 L36.8813559,15 L32.2542373,15 C27.0338983,15 25.9661017,18.9152542 25.9661017,21.2881356 L25.9661017,24.7288136 L23,24.7288136 L23,30.0677966 L25.9661017,30.0677966 C25.9661017,36.9491525 25.9661017,45.1355932 25.9661017,45.1355932 L32.2542373,45.1355932 C32.2542373,45.1355932 32.2542373,36.8305085 32.2542373,30.0677966 L36.5254237,30.0677966 L37,24.7288136 Z" id="Shape"></path>
                </g>
            </g>
        </g>
    </g>
</svg>