<?xml version="1.0" encoding="UTF-8"?>
<svg width="60px" height="60px" viewBox="0 0 60 60" version="1.1" xmlns="http://www.w3.org/2000/svg" xmlns:xlink="http://www.w3.org/1999/xlink">
    <!-- Generator: Sketch 58 (84663) - https://sketch.com -->
    <title>forumwhite</title>
    <desc>Created with Sketch.</desc>
    <g id="页面-1" stroke="none" stroke-width="1" fill="none" fill-rule="evenodd">
        <g id="画板备份-7" transform="translate(-800.000000, -7850.000000)" fill="#FFFFFF">
            <g id="Group-26" transform="translate(0.000000, 7818.000000)">
                <g id="twitter-copy-4" transform="translate(800.000000, 32.000000)">
                    <path d="M22.7991222,25.0694922 L22.7994741,30.0475751 C22.8070396,30.3728916 22.9772634,34.0327022 26.8072978,34.0327022 L26.8072978,34.0327022 L33.87679,34.0327022 L33.87679,37.0940189 C33.87679,38.9728512 31.93533,39.0981067 31.93533,39.0981067 L31.93533,39.0981067 L25.9230666,39.0981067 L19.8481756,45.11037 L19.8481756,39.0981067 L17.8440878,39.0981067 C17.8440878,39.0981067 15.84,39.0354789 15.84,37.0940189 L15.84,37.0940189 L15.8406574,27.046299 C15.8495319,26.806686 15.978213,25.0694922 17.8440878,25.0694922 L17.8440878,25.0694922 L22.7991222,25.0694922 Z M40.8631933,18.0006574 C41.1028062,18.0095319 42.84,18.138213 42.84,20.0040878 L42.84,20.0040878 L42.84,30.0245267 C42.84,31.9659867 40.8359122,32.0286144 40.8359122,32.0286144 L38.8318244,32.0286144 L38.8318244,38.0408778 L32.7569334,32.0286144 L26.7374179,32.028061 C26.6084707,32.0174309 24.80321,31.8362578 24.80321,30.0245267 L24.80321,30.0245267 L24.8038674,19.9768067 C24.8127419,19.7371938 24.9414229,18 26.8072978,18 L26.8072978,18 Z M38.6778956,26.2471485 L29.1198458,26.2471485 C28.7254553,26.2471485 28.4057386,26.6635717 28.4057386,27.1772557 C28.4057386,27.6909398 28.7254553,28.107363 29.1198458,28.107363 L29.1198458,28.107363 L38.6778956,28.107363 C39.0722861,28.107363 39.3920028,27.6909398 39.3920028,27.1772557 C39.3920028,26.6635717 39.0722861,26.2471485 38.6778956,26.2471485 L38.6778956,26.2471485 Z M38.6778956,22.0649177 L29.1198458,22.0649177 C28.7254553,22.0649177 28.4057386,22.4813409 28.4057386,22.995025 C28.4057386,23.508709 28.7254553,23.9251322 29.1198458,23.9251322 L29.1198458,23.9251322 L38.6778956,23.9251322 C39.0722861,23.9251322 39.3920028,23.508709 39.3920028,22.995025 C39.3920028,22.4813409 39.0722861,22.0649177 38.6778956,22.0649177 L38.6778956,22.0649177 Z" id="Combined-Shape"></path>
                </g>
            </g>
        </g>
    </g>
</svg>