<?xml version="1.0" encoding="UTF-8"?>
<svg width="60px" height="60px" viewBox="0 0 60 60" version="1.1" xmlns="http://www.w3.org/2000/svg" xmlns:xlink="http://www.w3.org/1999/xlink">
    <!-- Generator: Sketch 58 (84663) - https://sketch.com -->
    <title>github</title>
    <desc>Created with Sketch.</desc>
    <g id="页面-1" stroke="none" stroke-width="1" fill="none" fill-rule="evenodd">
        <g id="画板备份-7" transform="translate(-900.000000, -7850.000000)" fill="#FFFFFF" fill-rule="nonzero">
            <g id="Group-26" transform="translate(0.000000, 7818.000000)">
                <g id="Group-2" transform="translate(900.000000, 32.000000)">
                    <path d="M26.223676,45.6408492 C26.223676,45.2129726 26.2038021,44.0515931 26.2038021,42.5234623 C21.2353271,43.6237165 20.1820103,40.0580778 20.1820103,40.0580778 C19.3671804,37.9390696 18.1946203,37.3685674 18.1946203,37.3685674 C16.5649605,36.2479381 18.3138637,36.2479381 18.3138637,36.2479381 C20.1025147,36.3701886 21.056462,38.1428204 21.056462,38.1428204 C22.646374,40.9342062 25.2498549,40.1395781 26.2634238,39.6709513 C26.422415,38.4891968 26.8795147,37.6741936 27.3962361,37.2259419 C23.4214561,36.7573151 19.247937,35.1884341 19.247937,28.159032 C19.247937,26.1622744 19.9435235,24.511893 21.0962098,23.2282631 C20.9173447,22.7596363 20.3012537,20.9055041 21.2750749,18.3789944 C21.2750749,18.3789944 22.7854913,17.8899926 26.1839282,20.2535016 C27.614849,19.8460001 29.1451393,19.6422493 30.6555557,19.6422493 C32.1659721,19.6422493 33.6962624,19.8460001 35.1271832,20.2535016 C38.5454941,17.8696175 40.0360366,18.3789944 40.0360366,18.3789944 C41.0098577,20.9055041 40.3937668,22.7596363 40.2149017,23.2282631 C41.3675879,24.511893 42.0433005,26.1418993 42.0433005,28.159032 C42.0433005,35.2088091 37.8697815,36.7573151 33.8751275,37.2055668 C34.5110923,37.776069 35.0874354,38.8966983 35.0874354,40.6082049 C35.0874354,43.0532143 35.0675615,45.0295969 35.0675615,45.6408492 C35.0675615,46.1298511 26.223676,46.109476 26.223676,45.6408492 Z" id="Shape"></path>
                </g>
            </g>
        </g>
    </g>
</svg>