<?xml version="1.0" encoding="UTF-8"?>
<svg width="60px" height="60px" viewBox="0 0 60 60" version="1.1" xmlns="http://www.w3.org/2000/svg" xmlns:xlink="http://www.w3.org/1999/xlink">
    <!-- Generator: Sketch 58 (84663) - https://sketch.com -->
    <title>github</title>
    <desc>Created with Sketch.</desc>
    <g id="页面-1" stroke="none" stroke-width="1" fill="none" fill-rule="evenodd">
        <g id="画板备份-7" transform="translate(-471.000000, -8596.000000)" fill="#FFFFFF">
            <g id="fotter" transform="translate(0.000000, 7817.000000)">
                <g id="Group-2备份" transform="translate(471.000000, 779.000000)">
                    <path d="M20.0824444,23.4210833 C20.1156667,23.0859 19.9928889,22.7552667 19.7545556,22.5292833 L17.3278889,19.4580333 L17.3278889,19 L24.8664444,19 L30.6918889,32.41795 L35.8138889,19 L43,19 L43,19.4580333 L40.9243333,21.548 C40.7452222,21.6905667 40.6571111,21.9271667 40.6932222,22.1592167 L40.6932222,37.51395 C40.6571111,37.746 40.7452222,37.9826 40.9243333,38.12365 L42.9508889,40.2136167 L42.9508889,40.6731667 L32.7545556,40.6731667 L32.7545556,40.2136167 L34.8547778,38.0736 C35.0613333,37.8582333 35.0613333,37.7945333 35.0613333,37.4623833 L35.0613333,25.0530167 L29.2228889,40.6231167 L28.4342222,40.6231167 L21.6366667,25.0530167 L21.6366667,35.4876833 C21.5803333,35.926 21.719,36.3688667 22.0122222,36.6843333 L24.7436667,40.1635667 L24.7436667,40.6231167 L17,40.6231167 L17,40.1635667 L19.73,36.6843333 C20.0232222,36.36735 20.1532222,35.9229667 20.0824444,35.4876833 L20.0824444,23.4210833 Z" id="Fill-1"></path>
                </g>
            </g>
        </g>
    </g>
</svg>