<?xml version="1.0" encoding="UTF-8"?>
<svg width="60px" height="60px" viewBox="0 0 60 60" version="1.1" xmlns="http://www.w3.org/2000/svg" xmlns:xlink="http://www.w3.org/1999/xlink">
    <!-- Generator: Sketch 58 (84663) - https://sketch.com -->
    <title>reddit</title>
    <desc>Created with Sketch.</desc>
    <g id="页面-1" stroke="none" stroke-width="1" fill="none" fill-rule="evenodd">
        <g id="画板备份-7" transform="translate(-1200.000000, -7850.000000)" fill="#FFFFFF">
            <g id="Group-26" transform="translate(0.000000, 7818.000000)">
                <g id="twitter" transform="translate(1200.000000, 32.000000)">
                    <path d="M45.8333333,29.5777604 C45.8333333,27.4979036 44.1263021,25.8064583 42.0273958,25.8064583 C41.1189583,25.8064583 40.2847396,26.1241146 39.6296354,26.6527995 C37.3090625,25.207513 34.3640625,24.3366797 31.2072917,24.1523698 L32.8539583,18.9936719 L37.3793229,20.0498047 C37.4980729,21.6823698 38.8755729,22.9747656 40.5529167,22.9747656 C42.3074479,22.9747656 43.7354167,21.5599089 43.7354167,19.8202214 C43.7354167,18.0817708 42.3074479,16.6666667 40.5529167,16.6666667 C39.3258333,16.6666667 38.2590625,17.3588802 37.7276562,18.369987 L32.4690104,17.143151 C32.0286458,17.0402344 31.5833333,17.2913411 31.4467708,17.7188411 L29.4022917,24.1219401 C26.0010937,24.2043229 22.80375,25.0778776 20.3129687,26.6077734 C19.6667708,26.1067969 18.8543229,25.8067057 17.9726042,25.8067057 C15.8736979,25.8064583 14.1666667,27.4979036 14.1666667,29.5777604 C14.1666667,30.8632292 14.8197917,31.9997656 15.8143229,32.6803516 C15.7727604,32.9794531 15.7509896,33.2805339 15.7509896,33.5853255 C15.7509896,36.1847135 17.2759375,38.6027604 20.0447917,40.3934115 C22.6988542,42.1103385 26.211875,43.055638 29.9356771,43.055638 C33.6594792,43.055638 37.1725,42.1103385 39.8265625,40.3934115 C42.5954167,38.6030078 44.1203646,36.1849609 44.1203646,33.5853255 C44.1203646,33.3077474 44.1015625,33.0323958 44.0669271,32.758776 C45.1277604,32.0888281 45.8333333,30.9132031 45.8333333,29.5777604 M40.5529167,18.380625 C41.3544792,18.380625 42.0066146,19.0268229 42.0066146,19.819974 C42.0066146,20.6141146 41.3544792,21.2603125 40.5529167,21.2603125 C39.7513542,21.2603125 39.0992187,20.6141146 39.0992187,19.819974 C39.0992187,19.0268229 39.7513542,18.380625 40.5529167,18.380625 M23.1461458,31.9104557 C23.1461458,30.7387891 24.1386979,29.7551432 25.32125,29.7551432 C26.5047917,29.7551432 27.4646875,30.7385417 27.4646875,31.9104557 C27.4646875,33.083112 26.5047917,34.034349 25.32125,34.034349 C24.1386979,34.034349 23.1461458,33.083112 23.1461458,31.9104557 M35.213125,38.1567057 C34.1107292,39.2479687 32.410625,39.7786328 30.0158333,39.7786328 C30.0108854,39.7786328 30.0049479,39.7776432 29.9990104,39.7776432 C29.9940625,39.7776432 29.988125,39.7786328 29.9821875,39.7786328 C27.5873958,39.7786328 25.8882813,39.2482161 24.786875,38.1567057 C24.4484375,37.821237 24.4484375,37.2791927 24.786875,36.9447135 C25.1243229,36.6102344 25.6715625,36.6102344 26.01,36.9447135 C26.77,37.6977865 28.0693229,38.0644271 29.9821875,38.0644271 C29.988125,38.0644271 29.9940625,38.0654167 29.9990104,38.0654167 C30.0049479,38.0654167 30.0108854,38.0644271 30.0158333,38.0644271 C31.9286979,38.0644271 33.2290104,37.6977865 33.99,36.9447135 C34.3284375,36.6092448 34.8756771,36.6102344 35.213125,36.9447135 C35.5505729,37.2799349 35.5505729,37.8222266 35.213125,38.1567057 M34.7104167,34.034349 C33.526875,34.034349 32.5323438,33.083112 32.5323438,31.9104557 C32.5323438,30.7377995 33.526875,29.7551432 34.7104167,29.7551432 C35.8939583,29.7551432 36.8538542,30.7375521 36.8538542,31.9104557 C36.8538542,33.083112 35.8939583,34.034349 34.7104167,34.034349" id="Reddit_1_"></path>
                </g>
            </g>
        </g>
    </g>
</svg>