<?xml version="1.0" encoding="UTF-8"?>
<svg width="60px" height="60px" viewBox="0 0 60 60" version="1.1" xmlns="http://www.w3.org/2000/svg" xmlns:xlink="http://www.w3.org/1999/xlink">
    <!-- Generator: Sketch 58 (84663) - https://sketch.com -->
    <title>twitter</title>
    <desc>Created with Sketch.</desc>
    <g id="页面-1" stroke="none" stroke-width="1" fill="none" fill-rule="evenodd">
        <g id="画板备份-7" transform="translate(-1100.000000, -7850.000000)" fill="#FFFFFF" fill-rule="nonzero">
            <g id="Group-26" transform="translate(0.000000, 7818.000000)">
                <g id="telegram-copy" transform="translate(1100.000000, 32.000000)">
                    <path d="M14.9171176,29.1789514 L21.4456928,31.5470157 L23.9726516,39.4448774 C24.1343407,39.9507069 24.7708027,40.1376738 25.1932532,39.8020145 L28.8323913,36.9188503 C29.2138529,36.6167844 29.7571925,36.6017316 30.1558431,36.8829622 L36.7195517,41.5141801 C37.1714689,41.8334098 37.8117086,41.5927484 37.9250421,41.062045 L42.7333095,18.5846171 C42.8570319,18.0049003 42.2709089,17.5212828 41.7029193,17.7347757 L14.9094675,27.7798659 C14.2482611,28.0276866 14.2540222,28.9374639 14.9171176,29.1789514 Z M23.5654067,30.2864345 L36.3246789,22.6492435 C36.5539903,22.5123914 36.7899129,22.813723 36.5929959,22.991236 L26.0628988,32.5038789 C25.6927706,32.8387122 25.4540147,33.2868087 25.3863924,33.7731797 L25.0276919,36.3565727 C24.9801863,36.7015024 24.4816134,36.7357383 24.3836744,36.4019147 L23.0041226,31.691027 C22.8461168,31.1537151 23.0763727,30.5797807 23.5654067,30.2864345 Z" id="XMLID_497_"></path>
                </g>
            </g>
        </g>
    </g>
</svg>