<?xml version="1.0" encoding="UTF-8"?>
<svg width="60px" height="60px" viewBox="0 0 60 60" version="1.1" xmlns="http://www.w3.org/2000/svg" xmlns:xlink="http://www.w3.org/1999/xlink">
    <!-- Generator: Sketch 58 (84663) - https://sketch.com -->
    <title>twitter</title>
    <desc>Created with Sketch.</desc>
    <g id="页面-1" stroke="none" stroke-width="1" fill="none" fill-rule="evenodd">
        <g id="画板备份-7" transform="translate(-1000.000000, -7850.000000)" fill="#FFFFFF" fill-rule="nonzero">
            <g id="Group-26" transform="translate(0.000000, 7818.000000)">
                <g id="twitter-copy" transform="translate(1000.000000, 32.000000)">
                    <path d="M43.5245254,21.2825596 C43.0794194,21.4754629 42.6217918,21.6382696 42.154202,21.7704441 C42.7077969,21.1586908 43.1298708,20.4388759 43.3875205,19.6511877 C43.4452837,19.4746276 43.3854184,19.2813671 43.2368973,19.1658931 C43.0885591,19.0503298 42.8824576,19.0364872 42.7191302,19.1310634 C41.7260958,19.706558 40.6547338,20.120139 39.5313665,20.3619825 C38.3997734,19.2815457 36.8628322,18.6666667 35.2739772,18.6666667 C31.9201441,18.6666667 29.1915616,21.3327502 29.1915616,24.6097833 C29.1915616,24.8678807 29.2082874,25.1245492 29.2413733,25.3776454 C25.0795859,25.0205958 21.2104534,23.0218146 18.5535266,19.8372143 C18.4588387,19.723705 18.3129682,19.6625296 18.1636247,19.6742289 C18.0141897,19.6856602 17.8799267,19.7680013 17.8044323,19.8945494 C17.2655523,20.7980689 16.9806662,21.8314408 16.9806662,22.8828528 C16.9806662,24.3148914 17.5039171,25.673609 18.4282206,26.7352913 C18.1471731,26.6401792 17.8744428,26.5213116 17.6141426,26.3801171 C17.4743957,26.3041168 17.3038479,26.3052778 17.165015,26.3830642 C17.0260907,26.4608507 16.9389889,26.6039206 16.935333,26.7602972 C16.9346932,26.7866428 16.9346932,26.8129884 16.9346932,26.8396912 C16.9346932,28.9772556 18.1120764,30.9017333 19.9121512,31.9506447 C19.7575065,31.9355518 19.6029533,31.9136716 19.4494054,31.885004 C19.2911048,31.8554434 19.1283258,31.9096528 19.0215735,32.0276274 C18.9146383,32.1455127 18.8792675,32.3098377 18.9285307,32.4598736 C19.5948189,34.4925021 21.3102595,35.9875916 23.3840699,36.4434148 C21.6640594,37.4960771 19.6970927,38.0474588 17.6322393,38.0474588 C17.2013912,38.0474588 16.7680755,38.0227208 16.3439908,37.9736912 C16.1333195,37.9492211 15.9318793,38.070768 15.8601322,38.266529 C15.7883851,38.4623794 15.8644279,38.6807352 16.0436585,38.7929941 C18.6962896,40.4549091 21.7635,41.3333333 24.9135165,41.3333333 C31.1060661,41.3333333 34.9799513,38.4799729 37.1392184,36.0862759 C39.8317902,33.1015447 41.3760432,29.1508685 41.3760432,25.2473464 C41.3760432,25.0842717 41.3734841,24.9195895 41.3683658,24.7554431 C42.4306795,23.9733812 43.3452948,23.0269051 44.0895451,21.9390558 C44.2026038,21.7738378 44.1903566,21.555482 44.0593839,21.4033921 C43.928594,21.2512129 43.7106108,21.2020047 43.5245254,21.2825596 Z" id="XMLID_827_"></path>
                </g>
            </g>
        </g>
    </g>
</svg>