<?xml version="1.0" encoding="UTF-8"?>
<svg width="60px" height="60px" viewBox="0 0 60 60" version="1.1" xmlns="http://www.w3.org/2000/svg" xmlns:xlink="http://www.w3.org/1999/xlink">
    <!-- Generator: Sketch 58 (84663) - https://sketch.com -->
    <title>wechat</title>
    <desc>Created with Sketch.</desc>
    <g id="页面-1" stroke="none" stroke-width="1" fill="none" fill-rule="evenodd">
        <g id="画板备份-7" transform="translate(-1300.000000, -7850.000000)" fill="#FFFFFF" fill-rule="nonzero">
            <g id="Group-26" transform="translate(0.000000, 7818.000000)">
                <g id="telegram" transform="translate(1300.000000, 32.000000)">
                    <g id="Group" transform="translate(16.032706, 17.865882)">
                        <path d="M20.5756117,8.74464847 C17.8326608,8.88792173 15.447473,9.71948259 13.5110042,11.5980542 C11.5544962,13.4960049 10.6613783,15.8217354 10.9055068,18.7047797 C9.83341723,18.572006 8.85690318,18.4258529 7.8748094,18.3431768 C7.53564536,18.3146181 7.13312431,18.3551762 6.84585783,18.5172886 C5.8922627,19.0554032 4.97802573,19.6629346 3.89447672,20.3402428 C4.09330736,19.4410051 4.22200131,18.6535421 4.44981059,17.8961378 C4.6173827,17.339484 4.53974635,17.0296586 4.02695049,16.6670956 C0.734245446,14.342385 -0.653669238,10.8633288 0.385001881,7.28155732 C1.34597666,3.96803326 3.7059056,1.95848783 6.91251469,0.91093713 C11.2892487,-0.518675591 16.2078772,0.939615781 18.869232,4.41447225 C19.8304468,5.66967318 20.419859,7.07846688 20.5756117,8.74464847 Z M7.95166579,7.62858099 C7.9769246,6.97347182 7.40929131,6.3832796 6.73498304,6.36354053 C6.04465553,6.34326148 5.47684225,6.87081665 5.4566832,7.55106464 C5.43628416,8.24049219 5.96359935,8.79300619 6.65896662,8.81064536 C7.34833418,8.82816454 7.92616699,8.2998894 7.95166579,7.62858099 Z M14.5380958,6.36312054 C13.8613277,6.37559996 13.2894946,6.95199283 13.301494,7.60968188 C13.3138534,8.2914298 13.874827,8.8247447 14.5707343,8.81640509 C15.2684415,8.80800549 15.7976165,8.26899085 15.7910169,7.57290361 C15.7851971,6.88953577 15.2267434,6.35052114 14.5380958,6.36312054 Z" id="Shape"></path>
                        <path d="M26.7380417,25.8448037 C25.8695226,25.4580619 25.07276,24.8778292 24.22452,24.7892134 C23.3795197,24.7009575 22.4912615,25.1884346 21.6072031,25.2788504 C18.9143499,25.5543574 16.5018634,24.8038527 14.512597,22.9642193 C10.7292351,19.464884 11.2698696,14.0993365 15.6470236,11.2316514 C19.5373006,8.68297137 25.2426121,9.53265138 27.985383,13.069005 C30.3789703,16.1548397 30.0976436,20.251207 27.1756011,22.843565 C26.3300609,23.5938296 26.0257552,24.2112606 26.5683097,25.200314 C26.668445,25.3829455 26.6799044,25.6141746 26.7380417,25.8448037 Z M16.851347,16.2724347 C17.4042809,16.2729742 17.8595995,15.8402745 17.8805385,15.2941202 C17.9026175,14.7159275 17.4375794,14.2309703 16.8586066,14.2285603 C16.2853936,14.2259905 15.8051762,14.7177274 15.8250953,15.2873406 C15.8438744,15.8315749 16.3023728,16.2717742 16.851347,16.2724347 Z M23.224787,14.2308503 C22.6882923,14.2271305 22.2324337,14.6663098 22.2105347,15.2083843 C22.1873158,15.788077 22.6378346,16.2640946 23.2115276,16.2655403 C23.7663815,16.2673344 24.2047809,15.8477142 24.2249399,15.2956202 C24.2464789,14.7146075 23.7957201,14.2348101 23.224787,14.2308503 Z" id="Shape"></path>
                    </g>
                </g>
            </g>
        </g>
    </g>
</svg>