<?xml version="1.0" encoding="UTF-8"?>
<svg width="60px" height="60px" viewBox="0 0 60 60" version="1.1" xmlns="http://www.w3.org/2000/svg" xmlns:xlink="http://www.w3.org/1999/xlink">
    <!-- Generator: Sketch 58 (84663) - https://sketch.com -->
    <title>weibowhite</title>
    <desc>Created with Sketch.</desc>
    <g id="页面-1" stroke="none" stroke-width="1" fill="none" fill-rule="evenodd">
        <g id="画板备份-7" transform="translate(-700.000000, -7850.000000)" fill="#FFFFFF">
            <g id="Group-26" transform="translate(0.000000, 7818.000000)">
                <g id="twitter-copy-3" transform="translate(700.000000, 32.000000)">
                    <g id="iconfinder_Weibo_104800" transform="translate(14.400000, 18.000000)">
                        <path d="M12.9240754,3.47217969 C15.949423,3.42172084 15.1427052,6.72449853 14.9662552,7.55647692 C14.7898052,8.38845531 15.3005684,8.11114997 15.3005684,8.11114997 C15.3005684,8.11114997 16.72246,7.64797645 17.0750482,7.49766024 C17.427574,7.34740641 20.1962613,6.66530762 21.4852384,7.29538827 C22.7742155,7.92546891 22.8030937,8.76929795 22.8378348,9.13922552 C22.8724512,9.50909071 22.7626767,10.4686196 22.6008217,10.7923296 C22.4389667,11.1160396 22.3754098,11.4801666 22.4736455,11.6420216 C22.5718811,11.8038766 24.0174116,12.3125192 24.0174116,12.3125192 C26.2108432,13.2111107 26.7907145,15.0697301 26.6899216,16.4816422 C26.5890662,17.8935542 25.4545219,19.9357964 22.7316779,21.9022567 C20.0087091,23.8686547 16.176519,24.7007578 13.5292073,24.7007578 C10.8818956,24.7007578 8.51201398,24.3981919 5.96561998,23.4653582 C3.41922597,22.5325245 2.3098175,21.2718642 1.50309972,20.4399482 C0.696319568,19.6079075 0.217241227,18.1959954 0.217241227,18.1959954 C-0.841646028,13.3805127 3.54521715,8.9935872 4.85627388,7.70779108 C6.16726823,6.42193258 9.89866542,3.52263853 12.9240754,3.47217969 Z M11.2625511,10.9268033 C6.2252117,11.6293601 2.51458435,14.8733835 2.97476402,18.1725436 C3.43494368,21.4717037 7.89160098,23.5765049 12.9290028,22.8738857 C17.9662798,22.1712666 21.6769072,18.9272432 21.2168522,15.6280831 C20.7566102,12.3289854 16.2998282,10.2241218 11.2625511,10.9268033 Z M10.8002508,13.3016747 C13.426855,12.7509935 15.9385703,14.1289128 16.4102888,16.3792276 C16.8820696,18.629667 15.135283,20.9002526 12.5086787,21.4509339 C9.8820745,22.0014904 7.37035925,20.623571 6.89857842,18.3731939 C6.42679759,16.1229415 8.17370895,13.8522936 10.8002508,13.3016747 Z M13.9827755,17.1176481 C13.542243,17.1176481 13.1851017,17.4747895 13.1851017,17.915322 C13.1851017,18.3557922 13.542243,18.7129335 13.9827755,18.7129335 C14.4232457,18.7129335 14.780387,18.3558545 14.780387,17.915322 C14.780387,17.4747895 14.4233081,17.1176481 13.9827755,17.1176481 Z M10.0638885,15.2449951 C9.14452713,15.2449951 8.39924564,15.9902766 8.39924564,16.909638 C8.39924564,17.828937 9.14452713,18.5742184 10.0638885,18.5742184 C10.9832499,18.5742184 11.7285314,17.828937 11.7285314,16.909638 C11.7285314,15.9902766 10.9832499,15.2449951 10.0638885,15.2449951 Z M27.9299991,2.09189018 C27.9299991,2.09189018 27.9983587,2.14465679 28.0278606,2.17609221 C28.3157691,2.42763796 28.7977166,3.09108756 28.7977166,3.09108756 C31.5642833,6.78992662 30.199462,10.2932922 30.1358427,10.5899952 C30.0665475,10.9137052 29.7427752,11.3761303 28.7948475,11.2836328 C27.9522451,11.2014128 27.876906,10.2971778 27.8705665,10.0972517 L27.8700597,10.058275 C29.2109926,6.38213933 26.3533006,3.78509936 26.3533006,3.78509936 C25.3744364,2.96821497 23.4571251,1.83273506 20.9231431,2.57770469 C20.9231431,2.57770469 19.7910936,2.52861802 19.7591593,1.57663616 C19.7274743,0.62471666 20.2096089,0.331257007 20.5369989,0.282669319 C20.8370076,0.238073432 24.4169035,-0.899340008 27.9299991,2.09189018 Z M24.9006573,4.90765754 L25.0414954,5.0262996 L25.1381797,5.10450015 C25.3702981,5.30606584 25.6395941,5.62784712 25.7681405,5.78700302 L25.8140957,5.84443143 L25.8211983,5.85272689 L25.8275681,5.86145895 L25.8400113,5.8773092 L25.8444085,5.88291487 C26.7153069,7.05469522 26.3977717,8.88499777 26.29517,9.21868728 C26.1913208,9.55618147 25.8148442,10.0883383 25.0231581,9.88063995 C24.2314095,9.67300399 24.3741787,8.95915793 24.4780279,8.29720526 C24.5549154,7.80679225 24.3113868,7.29509032 24.1799681,7.06280595 L24.1443384,7.00180387 C24.1267495,6.97273858 24.1136514,6.95243307 24.1068737,6.94212554 L24.101676,6.9343175 C23.9811736,6.74795035 23.7939332,6.58291438 23.7921244,6.58129271 C23.6546568,6.47906522 23.0764072,6.07907441 22.4931678,6.12510485 C21.8251027,6.17780908 21.1024622,6.26537919 20.9561378,5.45997122 C20.8098134,4.65456325 21.3693515,4.32018765 21.7137066,4.24253467 C22.0437733,4.16811723 23.7918111,4.04185913 24.9006573,4.90765754 Z" id="Combined-Shape"></path>
                    </g>
                </g>
            </g>
        </g>
    </g>
</svg>