<?xml version="1.0" encoding="UTF-8"?>
<svg width="60px" height="60px" viewBox="0 0 60 60" version="1.1" xmlns="http://www.w3.org/2000/svg" xmlns:xlink="http://www.w3.org/1999/xlink">
    <!-- Generator: Sketch 58 (84663) - https://sketch.com -->
    <title>youtube</title>
    <desc>Created with Sketch.</desc>
    <g id="页面-1" stroke="none" stroke-width="1" fill="none" fill-rule="evenodd">
        <g id="画板备份-7" transform="translate(-1500.000000, -7850.000000)" fill="#FFFFFF" fill-rule="nonzero">
            <g id="Group-26" transform="translate(0.000000, 7818.000000)">
                <g id="if_YouTube_194904" transform="translate(1500.000000, 32.000000)">
                    <path d="M40.3548912,20.7498904 C41.802252,20.9112719 43.0048455,21.9956035 43.3428273,23.4657923 C43.7840107,25.3851439 43.8183784,27.4651436 43.8210426,29.4588916 L43.8212649,30.0003171 C43.8212649,32.1556639 43.8184112,34.4403696 43.3374373,36.5342077 C42.9991385,38.0043965 41.796545,39.088411 40.3495013,39.2501096 C37.2645778,39.5948129 34.1460116,39.6308242 31.0349444,39.6331925 L29.9982561,39.6331132 C26.5442477,39.6350157 23.0747037,39.6331132 19.647328,39.2501096 C18.1999673,39.088411 16.9980078,38.0043965 16.6600261,36.5342077 C16.2188426,34.6148561 16.1820773,32.5351227 16.1790136,30.5416635 L16.178735,30.0003171 C16.178735,27.8446531 16.184442,25.5596304 16.665416,23.4657923 C17.0037148,21.9956035 18.2056742,20.9112719 19.6527179,20.7498904 C22.7376414,20.4051871 25.8562077,20.3691758 28.9672749,20.3668075 L30.0039632,20.3668868 C33.4579715,20.3649843 36.9275155,20.3668868 40.3548912,20.7498904 Z M27.5120684,24.9 L27.5120684,33.7334591 L35.1620684,29.3167295 L27.5120684,24.9 Z" id="Oval-1"></path>
                </g>
            </g>
        </g>
    </g>
</svg>